<svg xmlns="http://www.w3.org/2000/svg" version="1.1" xmlns:xlink="http://www.w3.org/1999/xlink" xmlns:svgjs="http://svgjs.dev/svgjs" width="2000" height="1500" viewBox="0 0 2000 1500"><rect width="2000" height="1500" fill="#010536"></rect><g transform="matrix(0.75,0,0,0.75,249.090909090909,282.7536437246963)"><svg viewBox="0 0 396 247" data-background-color="#010536" preserveAspectRatio="xMidYMid meet" height="1247" width="2000" xmlns="http://www.w3.org/2000/svg" xmlns:xlink="http://www.w3.org/1999/xlink"><g id="tight-bounds" transform="matrix(1,0,0,1,0.2400000000000091,-0.09999999999999432)"><svg viewBox="0 0 395.52 247.2" height="247.2" width="395.52"><g><svg></svg></g><g><svg viewBox="0 0 395.52 247.2" height="247.2" width="395.52"><g><path xmlns="http://www.w3.org/2000/svg" d="M55.039 247.2l45.407-78.648v13.136l-33.823 58.584h262.274l-33.823-58.584v-13.136l45.407 78.648zM197.76 0l26.403 45.732-7.583 0-18.82-32.596-18.82 32.596-7.583 0z" fill="#fbfbf8" fill-rule="nonzero" stroke="none" stroke-width="1" stroke-linecap="butt" stroke-linejoin="miter" stroke-miterlimit="10" stroke-dasharray="" stroke-dashoffset="0" font-family="none" font-weight="none" font-size="none" text-anchor="none" style="mix-blend-mode: normal" data-fill-palette-color="tertiary"></path></g><g transform="matrix(1,0,0,1,122.69422900763358,67.97999999999999)"><svg viewBox="0 0 150.13154198473282 111.24" height="111.24" width="150.13154198473282"><g><svg viewBox="0 0 150.13154198473282 111.24" height="111.24" width="150.13154198473282"><g><svg viewBox="0 0 150.13154198473282 111.24" height="111.24" width="150.13154198473282"><g><svg viewBox="0 0 150.13154198473282 111.24" height="111.24" width="150.13154198473282"><g id="textblocktransform"><svg viewBox="0 0 150.13154198473282 111.24" height="111.24" width="150.13154198473282" id="textblock"><g><svg viewBox="0 0 150.13154198473282 111.24" height="111.24" width="150.13154198473282"><g transform="matrix(1,0,0,1,0,0)"><svg width="150.13154198473282" viewBox="3.3499999046325684 -32.75 44.20000076293945 32.75" height="111.24" data-palette-color="#fbfbf8"><path d="M10.6 0L3.35 0 3.35-32.75 11.05-32.75Q16.55-32.75 19.23-30.78 21.9-28.8 21.9-24.25L21.9-24.25Q21.9-18.55 16.35-16.85L16.35-16.85Q19.65-16.1 21.23-14.35 22.8-12.6 22.8-9.25L22.8-9.25Q22.8-3.95 19.8-1.98 16.8 0 10.6 0L10.6 0ZM19.9-9.25L19.9-9.25Q19.9-15.35 11.6-15.35L11.6-15.35 6.1-15.35 6.1-2.45 10.6-2.45Q15.25-2.45 17.57-3.93 19.9-5.4 19.9-9.25ZM16.4-29.4L16.4-29.4Q14.25-30.3 11.05-30.3L11.05-30.3 6.1-30.3 6.1-17.8 11.45-17.8Q14.6-17.8 16.8-19.23 19-20.65 19.05-24.45 19.1-28.25 16.4-29.4ZM30.1 0L27.4 0 27.4-32.75 30.05-32.75 37.1-14.4 37.85-14.4 44.9-32.75 47.55-32.75 47.55 0 44.85 0 44.85-25.4 44.65-25.4 39.4-11.85 35.55-11.85 30.3-25.45 30.1-25.45 30.1 0Z" opacity="1" transform="matrix(1,0,0,1,0,0)" fill="#fbfbf8" class="wordmark-text-0" data-fill-palette-color="primary" id="text-0"></path></svg></g></svg></g></svg></g></svg></g></svg></g></svg></g></svg></g></svg></g><defs></defs></svg><rect width="395.52" height="247.2" fill="none" stroke="none" visibility="hidden"></rect></g></svg></g></svg>