{
  "accessors": [
    {
      "bufferView": 2,
      "componentType": 5126,
      "count": 5149,
      "max": [
        69.67450714111328,
        69.67450714111328,
        69.67450714111328
      ],
      "min": [
        -69.67450714111328,
        -69.67450714111328,
        -69.67450714111328
      ],
      "type": "VEC3"
    },
    {
      "bufferView": 2,
      "byteOffset": 61788,
      "componentType": 5126,
      "count": 5149,
      "max": [
        1.0,
        1.0,
        1.0
      ],
      "min": [
        -1.0,
        -1.0,
        -1.0
      ],
      "type": "VEC3"
    },
    {
      "bufferView": 1,
      "componentType": 5126,
      "count": 5149,
      "max": [
        1.0000003576278687,
        1.0
      ],
      "min": [
        0.0,
        -3.5762786865234375e-07
      ],
      "type": "VEC2"
    },
    {
      "bufferView": 1,
      "byteOffset": 41192,
      "componentType": 5126,
      "count": 5149,
      "max": [
        1.0000003576278687,
        1.0
      ],
      "min": [
        0.0,
        -3.5762786865234375e-07
      ],
      "type": "VEC2"
    },
    {
      "bufferView": 0,
      "componentType": 5125,
      "count": 29400,
      "type": "SCALAR"
    },
    {
      "bufferView": 2,
      "byteOffset": 123576,
      "componentType": 5126,
      "count": 5149,
      "max": [
        69.67450714111328,
        69.67450714111328,
        69.67450714111328
      ],
      "min": [
        -69.67450714111328,
        -69.67450714111328,
        -69.67450714111328
      ],
      "type": "VEC3"
    },
    {
      "bufferView": 2,
      "byteOffset": 185364,
      "componentType": 5126,
      "count": 5149,
      "max": [
        1.0,
        1.0,
        1.0
      ],
      "min": [
        -1.0,
        -1.0,
        -1.0
      ],
      "type": "VEC3"
    },
    {
      "bufferView": 1,
      "byteOffset": 82384,
      "componentType": 5126,
      "count": 5149,
      "max": [
        1.0000003576278687,
        1.0
      ],
      "min": [
        0.0,
        -3.5762786865234375e-07
      ],
      "type": "VEC2"
    },
    {
      "bufferView": 1,
      "byteOffset": 123576,
      "componentType": 5126,
      "count": 5149,
      "max": [
        1.0000003576278687,
        1.0
      ],
      "min": [
        0.0,
        -3.5762786865234375e-07
      ],
      "type": "VEC2"
    },
    {
      "bufferView": 0,
      "byteOffset": 117600,
      "componentType": 5125,
      "count": 29400,
      "type": "SCALAR"
    },
    {
      "bufferView": 2,
      "byteOffset": 247152,
      "componentType": 5126,
      "count": 5149,
      "max": [
        68.82660675048828,
        68.82660675048828,
        68.82660675048828
      ],
      "min": [
        -68.82660675048828,
        -68.82660675048828,
        -68.82660675048828
      ],
      "type": "VEC3"
    },
    {
      "bufferView": 2,
      "byteOffset": 308940,
      "componentType": 5126,
      "count": 5149,
      "max": [
        1.0,
        1.0,
        1.0
      ],
      "min": [
        -1.0,
        -1.0,
        -1.0
      ],
      "type": "VEC3"
    },
    {
      "bufferView": 1,
      "byteOffset": 164768,
      "componentType": 5126,
      "count": 5149,
      "max": [
        1.0000003576278687,
        1.0
      ],
      "min": [
        0.0,
        -3.5762786865234375e-07
      ],
      "type": "VEC2"
    },
    {
      "bufferView": 1,
      "byteOffset": 205960,
      "componentType": 5126,
      "count": 5149,
      "max": [
        1.0000003576278687,
        1.0
      ],
      "min": [
        0.0,
        -3.5762786865234375e-07
      ],
      "type": "VEC2"
    },
    {
      "bufferView": 0,
      "byteOffset": 235200,
      "componentType": 5125,
      "count": 29400,
      "type": "SCALAR"
    },
    {
      "bufferView": 3,
      "componentType": 5126,
      "count": 1001,
      "max": [
        33.33333206176758
      ],
      "min": [
        0.0
      ],
      "type": "SCALAR"
    },
    {
      "bufferView": 4,
      "componentType": 5126,
      "count": 1001,
      "max": [
        0.623393177986145,
        0.707105278968811,
        0.707105278968811,
        0.7071067690849304
      ],
      "min": [
        -0.7071067690849304,
        -0.5676701068878174,
        -0.6238664388656616,
        -0.4989796578884125
      ],
      "type": "VEC4"
    },
    {
      "bufferView": 3,
      "byteOffset": 4004,
      "componentType": 5126,
      "count": 1001,
      "max": [
        33.33333206176758
      ],
      "min": [
        0.0
      ],
      "type": "SCALAR"
    },
    {
      "bufferView": 4,
      "byteOffset": 16016,
      "componentType": 5126,
      "count": 1001,
      "max": [
        0.623393177986145,
        0.707105278968811,
        0.707105278968811,
        0.7071067690849304
      ],
      "min": [
        -0.7071067690849304,
        -0.5676701068878174,
        -0.6238664388656616,
        -0.4989796578884125
      ],
      "type": "VEC4"
    },
    {
      "bufferView": 3,
      "byteOffset": 8008,
      "componentType": 5126,
      "count": 1001,
      "max": [
        33.33333206176758
      ],
      "min": [
        0.0
      ],
      "type": "SCALAR"
    },
    {
      "bufferView": 4,
      "byteOffset": 32032,
      "componentType": 5126,
      "count": 1001,
      "max": [
        0.623393177986145,
        0.707105278968811,
        0.707105278968811,
        0.7071067690849304
      ],
      "min": [
        -0.7071067690849304,
        -0.5676701068878174,
        -0.6238664388656616,
        -0.4989796578884125
      ],
      "type": "VEC4"
    }
  ],
  "animations": [
    {
      "channels": [
        {
          "sampler": 0,
          "target": {
            "node": 4,
            "path": "rotation"
          }
        },
        {
          "sampler": 1,
          "target": {
            "node": 6,
            "path": "rotation"
          }
        },
        {
          "sampler": 2,
          "target": {
            "node": 8,
            "path": "rotation"
          }
        }
      ],
      "name": "Take 001",
      "samplers": [
        {
          "input": 15,
          "interpolation": "LINEAR",
          "output": 16
        },
        {
          "input": 17,
          "interpolation": "LINEAR",
          "output": 18
        },
        {
          "input": 19,
          "interpolation": "LINEAR",
          "output": 20
        }
      ]
    }
  ],
  "asset": {
    "extras": {
      "author": "Nikom1999 (https://sketchfab.com/Nikom1999)",
      "license": "CC-BY-NC-4.0 (http://creativecommons.org/licenses/by-nc/4.0/)",
      "source": "https://sketchfab.com/3d-models/earth-30eac23fcab643a6a9bd304098c3bd34",
      "title": "Earth"
    },
    "generator": "Sketchfab-12.68.0",
    "version": "2.0"
  },
  "bufferViews": [
    {
      "buffer": 0,
      "byteLength": 352800,
      "name": "floatBufferViews",
      "target": 34963
    },
    {
      "buffer": 0,
      "byteLength": 247152,
      "byteOffset": 352800,
      "byteStride": 8,
      "name": "floatBufferViews",
      "target": 34962
    },
    {
      "buffer": 0,
      "byteLength": 370728,
      "byteOffset": 599952,
      "byteStride": 12,
      "name": "floatBufferViews",
      "target": 34962
    },
    {
      "buffer": 0,
      "byteLength": 12012,
      "byteOffset": 970680,
      "name": "floatBufferViews"
    },
    {
      "buffer": 0,
      "byteLength": 48048,
      "byteOffset": 982692,
      "byteStride": 16,
      "name": "floatBufferViews"
    }
  ],
  "buffers": [
    {
      "byteLength": 1030740,
      "uri": "scene.bin"
    }
  ],
  "images": [
    {
      "uri": "textures/02_-_Default_baseColor.jpeg"
    },
    {
      "uri": "textures/07_-_Default_baseColor.jpeg"
    }
  ],
  "materials": [
    {
      "alphaMode": "BLEND",
      "doubleSided": true,
      "name": "03_-_Default",
      "pbrMetallicRoughness": {
        "baseColorFactor": [
          0.0,
          0.06518791730249934,
          1.0,
          0.14195884146341464
        ],
        "metallicFactor": 0.0,
        "roughnessFactor": 0.8929713596497552
      }
    },
    {
      "alphaMode": "BLEND",
      "doubleSided": true,
      "name": "02_-_Default",
      "pbrMetallicRoughness": {
        "baseColorFactor": [
          1.0,
          1.0,
          1.0,
          0.23951981707317074
        ],
        "baseColorTexture": {
          "index": 0
        },
        "metallicFactor": 0.0,
        "roughnessFactor": 0.8929713596497552
      }
    },
    {
      "doubleSided": true,
      "name": "07_-_Default",
      "pbrMetallicRoughness": {
        "baseColorTexture": {
          "index": 1
        },
        "metallicFactor": 0.0,
        "roughnessFactor": 0.8929713596497552
      }
    }
  ],
  "meshes": [
    {
      "name": "Sphere002_03 - Default_0",
      "primitives": [
        {
          "attributes": {
            "NORMAL": 1,
            "POSITION": 0,
            "TEXCOORD_0": 2,
            "TEXCOORD_1": 3
          },
          "indices": 4,
          "material": 0,
          "mode": 4
        }
      ]
    },
    {
      "name": "Sphere003_02 - Default_0",
      "primitives": [
        {
          "attributes": {
            "NORMAL": 6,
            "POSITION": 5,
            "TEXCOORD_0": 7,
            "TEXCOORD_1": 8
          },
          "indices": 9,
          "material": 1,
          "mode": 4
        }
      ]
    },
    {
      "name": "Sphere004_07 - Default_0",
      "primitives": [
        {
          "attributes": {
            "NORMAL": 11,
            "POSITION": 10,
            "TEXCOORD_0": 12,
            "TEXCOORD_1": 13
          },
          "indices": 14,
          "material": 2,
          "mode": 4
        }
      ]
    }
  ],
  "nodes": [
    {
      "children": [
        1
      ],
      "matrix": [
        1.0,
        0.0,
        0.0,
        0.0,
        0.0,
        2.220446049250313e-16,
        -1.0,
        0.0,
        0.0,
        1.0,
        2.220446049250313e-16,
        0.0,
        1.6004146345949266e-06,
        2.530756546548213e-07,
        2.329189101146767e-06,
        1.0
      ],
      "name": "Sketchfab_model"
    },
    {
      "children": [
        2
      ],
      "matrix": [
        1.0,
        0.0,
        0.0,
        0.0,
        0.0,
        0.0,
        1.0,
        0.0,
        0.0,
        -1.0,
        0.0,
        0.0,
        0.0,
        0.0,
        0.0,
        1.0
      ],
      "name": "7f98eb3187ac4c4d8ddeb78c20840894.fbx"
    },
    {
      "children": [
        3
      ],
      "name": "Object_2"
    },
    {
      "children": [
        4,
        6,
        8
      ],
      "name": "RootNode"
    },
    {
      "children": [
        5
      ],
      "name": "Sphere002",
      "rotation": [
        -0.6993816494941711,
        0.10423709452152252,
        -0.10423709452152252,
        0.6993816494941711
      ],
      "scale": [
        1.038699984550476,
        1.038699984550476,
        1.038699984550476
      ],
      "translation": [
        0.0,
        93.76033020019531,
        0.0
      ]
    },
    {
      "mesh": 0,
      "name": "Sphere002_03 - Default_0"
    },
    {
      "children": [
        7
      ],
      "name": "Sphere003",
      "rotation": [
        -0.6993816494941711,
        0.10423708707094193,
        -0.10423708707094193,
        0.6993816494941711
      ],
      "scale": [
        1.0287469625473022,
        1.0287469625473022,
        1.0287469625473022
      ],
      "translation": [
        0.0,
        93.76033020019531,
        0.0
      ]
    },
    {
      "mesh": 1,
      "name": "Sphere003_02 - Default_0"
    },
    {
      "children": [
        9
      ],
      "name": "Sphere004",
      "rotation": [
        -0.6993816494941711,
        0.10423709452152252,
        -0.10423709452152252,
        0.6993816494941711
      ],
      "scale": [
        1.0194439888000488,
        1.0194439888000488,
        1.0194439888000488
      ],
      "translation": [
        0.0,
        93.76023864746094,
        0.0
      ]
    },
    {
      "mesh": 2,
      "name": "Sphere004_07 - Default_0"
    }
  ],
  "samplers": [
    {
      "magFilter": 9729,
      "minFilter": 9987,
      "wrapS": 10497,
      "wrapT": 10497
    }
  ],
  "scene": 0,
  "scenes": [
    {
      "name": "Sketchfab_Scene",
      "nodes": [
        0
      ]
    }
  ],
  "textures": [
    {
      "sampler": 0,
      "source": 0
    },
    {
      "sampler": 0,
      "source": 1
    }
  ]
}
